HIERARCHY
ROOT SpineBase
{
  OFFSET 0.000000 0.000000 0.000000
  CHANNELS 6 Xposition Yposition Zposition Zrotation Xrotation Yrotation
  JOINT SpineMid
  {
    OFFSET -0.000000 35.535819 0.000000
    CHANNELS 3 Zrotation Xrotation Yrotation
    JOINT SpineShoulder
    {
      OFFSET 0.752624 26.189426 -0.444804
      CHANNELS 3 Zrotation Xrotation Yrotation
      JOINT Neck
      {
        OFFSET 0.325349 8.597119 -0.529114
        CHANNELS 3 Zrotation Xrotation Yrotation
        JOINT Head
        {
          OFFSET -2.007292 12.847452 6.065992
          CHANNELS 3 Zrotation Xrotation Yrotation
          End Site
          {
            OFFSET 0 0 0
          }
        }
      }
      JOINT ShoulderLeft
      {
        OFFSET -6.507636 -6.619344 -16.440335
        CHANNELS 3 Zrotation Xrotation Yrotation
        JOINT ElbowLeft
        {
          OFFSET -8.555795 -25.395267 -3.877719
          CHANNELS 3 Zrotation Xrotation Yrotation
          JOINT WristLeft
          {
            OFFSET -4.136758 -20.536132 -1.848060
            CHANNELS 3 Zrotation Xrotation Yrotation
            JOINT HandLeft
            {
              OFFSET -1.722377 -4.894429 -1.327476
              CHANNELS 3 Zrotation Xrotation Yrotation
              JOINT HandTipLeft
              {
                OFFSET -2.482900 -8.960972 0.539835
                CHANNELS 3 Zrotation Xrotation Yrotation
                End Site
                {
                  OFFSET 0 0 0
                }
              }
              JOINT ThumbLeft
              {
                OFFSET 4.275846 -0.751451 1.379503
                CHANNELS 3 Zrotation Xrotation Yrotation
                End Site
                {
                  OFFSET 0 0 0
                }
              }
            }
          }
        }
      }
      JOINT ShoulderRight
      {
        OFFSET -1.442902 -5.576005 -13.302815
        CHANNELS 3 Zrotation Xrotation Yrotation
        JOINT ElbowRight
        {
          OFFSET -7.607905 -27.007935 -7.740111
          CHANNELS 3 Zrotation Xrotation Yrotation
          JOINT WristRight
          {
            OFFSET -11.213138 -20.625196 -2.937284
            CHANNELS 3 Zrotation Xrotation Yrotation
            JOINT HandRight
            {
              OFFSET -2.774305 -7.474302 1.010596
              CHANNELS 3 Zrotation Xrotation Yrotation
              JOINT HandTipRight
              {
                OFFSET -2.709820 -7.691103 0.897835
                CHANNELS 3 Zrotation Xrotation Yrotation
                End Site
                {
                  OFFSET 0 0 0
                }
              }
              JOINT ThumbRight
              {
                OFFSET 3.190158 0.194138 -1.063181
                CHANNELS 3 Zrotation Xrotation Yrotation
                End Site
                {
                  OFFSET 0 0 0
                }
              }
            }
          }
        }
      }
    }
  }
  JOINT HipLeft
  {
    OFFSET -5.651611 0.689140 1.576922
    CHANNELS 3 Zrotation Xrotation Yrotation
    JOINT KneeLeft
    {
      OFFSET 3.024316 -38.456785 7.294656
      CHANNELS 3 Zrotation Xrotation Yrotation
      JOINT AnkleLeft
      {
        OFFSET -4.973711 -28.791104 -18.618604
        CHANNELS 3 Zrotation Xrotation Yrotation
        JOINT FootLeft
        {
          OFFSET -7.351609 -10.155028 -5.855196
          CHANNELS 3 Zrotation Xrotation Yrotation
          End Site
          {
            OFFSET 0 0 0
          }
        }
      }
    }
  }
  JOINT HipRight
  {
    OFFSET 5.456935 1.037727 -9.116761
    CHANNELS 3 Zrotation Xrotation Yrotation
    JOINT KneeRight
    {
      OFFSET -17.459521 -34.278674 -2.557327
      CHANNELS 3 Zrotation Xrotation Yrotation
      JOINT AnkleRight
      {
        OFFSET 0.925937 -39.240716 -1.749850
        CHANNELS 3 Zrotation Xrotation Yrotation
        JOINT FootRight
        {
          OFFSET -4.561908 -7.147384 -2.848267
          CHANNELS 3 Zrotation Xrotation Yrotation
          End Site
          {
            OFFSET 0 0 0
          }
        }
      }
    }
  }
}
MOTION
Frames: 8
Frame Time: 0.033333
8.104249 79.936445 296.960912 0.000000 0.000000 43.909880 -0.000000 0.000000 -43.909880 -0.000000 0.000000 0.000000 -0.000000 0.000000 0.000000 0.000000 0.000000 0.000000 -0.000000 0.000000 0.000000 -0.000000 0.000000 0.000000 -0.000000 0.000000 0.000000 -0.000000 0.000000 0.000000 0.000000 0.000000 0.000000 0.000000 0.000000 0.000000 -0.000000 0.000000 0.000000 -0.000000 0.000000 0.000000 -0.000000 0.000000 0.000000 -0.000000 0.000000 0.000000 0.000000 0.000000 0.000000 0.000000 0.000000 0.000000 -0.000000 0.000000 -43.909880 -0.000000 0.000000 0.000000 -0.000000 0.000000 0.000000 0.000000 0.000000 0.000000 -0.000000 0.000000 -43.909880 -0.000000 0.000000 0.000000 -0.000000 0.000000 0.000000 0.000000 0.000000 0.000000
8.285983 79.894106 297.133242 0.026727 -0.132708 43.321041 0.071605 0.114884 -43.321082 -0.000000 0.000000 0.000000 -0.000000 0.000000 0.000000 0.000000 0.000000 0.000000 -0.000000 0.000000 0.000000 -0.000000 0.000000 0.000000 1.172021 -0.152326 -0.263770 -1.172714 0.146898 0.266832 0.000000 0.000000 0.000000 0.000000 0.000000 0.000000 -0.000000 0.000000 0.000000 -0.000000 0.000000 0.000000 -0.000000 0.000000 0.000000 -0.000000 0.000000 0.000000 0.000000 0.000000 0.000000 0.000000 0.000000 0.000000 0.071605 0.114884 -43.321082 -0.000000 0.000000 0.000000 0.368455 0.583248 -0.636167 0.000000 0.000000 0.000000 0.071605 0.114884 -43.321082 -0.000000 0.000000 0.000000 -0.000000 0.000000 0.000000 0.000000 0.000000 0.000000
8.447543 79.858752 297.282371 0.050051 -0.245250 42.864517 0.130150 0.213807 -42.864653 0.990981 -0.377813 0.078567 -1.842042 -0.199815 0.241538 0.000000 0.000000 0.000000 -0.990483 0.379115 -0.072023 -0.000000 0.000000 0.000000 2.119663 -0.233386 -0.491989 -2.121604 0.215021 0.500288 0.000000 0.000000 0.000000 0.000000 0.000000 0.000000 -0.990483 0.379115 -0.072023 -0.000000 0.000000 0.000000 -0.000000 0.000000 0.000000 -1.028649 0.796059 -0.392495 0.000000 0.000000 0.000000 0.000000 0.000000 0.000000 0.130150 0.213807 -42.864653 -0.000000 0.000000 0.000000 0.845792 1.238598 -1.392216 0.000000 0.000000 0.000000 0.010841 1.142114 -43.113943 0.721575 -0.596099 0.254455 -0.000000 0.000000 0.000000 0.000000 0.000000 0.000000
8.588930 79.830385 297.408296 0.069978 -0.337649 42.539454 0.362954 -0.684123 -42.508346 0.577074 0.067536 0.070225 -2.538729 -0.290882 0.325768 0.000000 0.000000 0.000000 -1.376056 0.530906 -0.098393 -0.000000 0.000000 0.000000 2.853531 -0.243485 -0.688777 -2.856270 0.208877 0.700049 0.000000 0.000000 0.000000 0.000000 0.000000 0.000000 -1.376056 0.530906 -0.098393 -0.000000 0.000000 0.000000 -0.000000 0.000000 0.000000 -1.426171 1.027589 -0.514048 0.000000 0.000000 0.000000 0.000000 0.000000 0.000000 0.176725 0.296095 -42.539704 -0.000000 0.000000 0.000000 1.439205 1.962939 -2.273620 0.000000 0.000000 0.000000 -0.012048 1.579516 -42.876481 1.011676 -0.812019 0.347036 -0.000000 0.000000 0.000000 0.000000 0.000000 0.000000
8.710143 79.809003 297.511019 0.086509 -0.409923 42.344727 0.447497 -0.849878 -42.306097 0.700838 0.082234 0.085118 -3.085843 -0.375125 0.384115 0.000000 0.000000 0.000000 -1.689123 0.657574 -0.119133 -0.000000 0.000000 0.000000 3.382316 -0.182763 -0.857174 -4.135649 0.482797 0.725431 0.000000 0.000000 0.000000 0.000000 0.000000 0.000000 -1.689123 0.657574 -0.119133 0.830066 -0.048182 -0.092038 -0.830142 0.046843 0.092726 -1.741948 1.142198 -0.585984 0.000000 0.000000 0.000000 0.000000 0.000000 0.000000 0.212183 0.361248 -42.345086 -0.000000 0.000000 0.000000 2.154947 2.750822 -3.284552 0.000000 0.000000 0.000000 -0.047980 1.927966 -42.744918 1.254578 -0.973882 0.415692 -0.000000 0.000000 0.000000 0.000000 0.000000 0.000000
8.811183 79.794607 297.590540 0.099649 -0.462087 42.279014 0.511129 -0.986299 -42.234315 0.790587 0.092918 0.096310 -3.483415 -0.451995 0.415729 0.000000 0.000000 0.000000 -1.930047 0.759167 -0.134708 -0.000000 0.000000 0.000000 3.712701 -0.051057 -0.999188 -4.525731 0.442963 0.824806 0.000000 0.000000 0.000000 0.000000 0.000000 0.000000 -1.930047 0.759167 -0.134708 0.965540 -0.037408 -0.117399 -0.965615 0.035424 0.118013 -1.973622 1.136998 -0.608452 0.000000 0.000000 0.000000 0.000000 0.000000 0.000000 0.327792 1.409905 -42.332968 0.607121 -0.801002 0.056315 2.997800 3.594219 -4.427365 0.000000 0.000000 0.000000 -0.094040 2.187784 -42.718207 1.450270 -1.082090 0.459950 -0.000000 0.000000 0.000000 0.000000 0.000000 0.000000
8.932861 79.809016 297.624464 0.163660 -0.483791 42.406325 0.534068 -1.066596 -42.356864 0.879608 0.079550 0.107859 -3.873375 -0.575655 0.448805 0.000000 0.000000 0.000000 -2.154626 0.836743 -0.148515 -0.000000 0.000000 0.000000 3.895860 0.131343 -1.120767 -4.677229 0.424091 0.885477 0.000000 0.000000 0.000000 0.000000 0.000000 0.000000 -2.154626 0.836743 -0.148515 1.067081 0.051225 -0.181202 -1.066914 -0.054590 0.180216 -2.594845 0.601097 -0.497471 0.000000 0.000000 0.000000 0.000000 0.000000 0.000000 0.287313 1.693968 -42.478027 0.767851 -0.959773 0.076441 5.155633 5.474858 -7.214549 0.000000 0.000000 0.000000 -0.261792 2.392984 -42.832501 1.651834 -1.094095 0.453465 1.011962 -0.182623 -0.286906 0.000000 0.000000 0.000000
8.997757 79.808759 297.659428 0.197569 -0.505819 42.609909 0.533584 -1.101884 -42.557988 0.916061 0.068472 0.113060 -4.027730 -0.675951 0.445767 0.000000 0.000000 0.000000 -2.249790 0.892663 -0.154695 -0.000000 0.000000 0.000000 4.062335 0.832892 -1.439957 -4.890461 -0.151384 1.097833 0.000000 0.000000 0.000000 0.000000 0.000000 0.000000 -2.249790 0.892663 -0.154695 1.139120 0.086385 -0.211172 -1.138795 -0.090565 0.209413 -2.760982 -0.496550 -0.157964 0.000000 0.000000 0.000000 0.000000 0.000000 0.000000 0.355008 1.948200 -42.684753 0.861725 -1.167193 0.080241 6.808658 6.746401 -9.285903 0.000000 0.000000 0.000000 -0.345903 2.506073 -43.023914 1.761786 -1.091429 0.445061 1.451392 -0.337074 -0.362359 0.000000 0.000000 0.000000
